#!OML:ASF I:\Actors\actors\Patient Classification 2\Patient 1\Session 1\actor1.ASF
:FULLY-SPECIFIED
:DEGREES
529
root -0.836874 18.2151 5.48037 0.655991 -5.32733 -5.46967
lowerback 8.6515 -0.526323 2.11777
upperback 2.12511 -0.541573 -0.8393
thorax -2.67502 -0.282753 -2.00059
lowerneck 2.1533 -11.5044 -12.9565
upperneck 9.71475 -14.84 -5.01618
head 3.44857 -7.91811 0.0656279
rclavicle 1.35174e-014 3.18055e-015
rhumerus -7.26963 29.4219 -68.2746
rradius 133.121
rwrist 3.4209
rhand -23.3144 -0.432062
rfingers 7.12502
rthumb 3.13946 -30.3887
lclavicle 1.35174e-014 3.18055e-015
lhumerus -52.7129 -17.475 96.9071
lradius 88.0072
lwrist 21.1999
lhand -9.11328 -12.7998
lfingers 7.12502
lthumb 16.8374 16.4902
rfemur 0 0 0
rtibia 0
rfoot 0 0
rtoes 0
lfemur 17.195 -3.95081 -11.9594
ltibia -19.2527
lfoot -2.89318 22.6434
ltoes -8.95151
530
root -0.83112 18.2134 5.47613 0.615812 -5.31685 -5.54933
lowerback 8.74118 -0.539252 2.11256
upperback 2.12038 -0.555992 -0.795276
thorax -2.72989 -0.290526 -1.95003
lowerneck 2.01626 -11.4917 -13.0349
upperneck 9.64414 -14.8137 -4.90126
head 3.46584 -7.90266 0.108082
rclavicle 1.11319e-014 -7.15625e-015
rhumerus -7.3739 28.8127 -68.1548
rradius 132.48
rwrist 2.42107
rhand -22.1735 -3.44686
rfingers 7.12502
rthumb 4.24119 -33.3844
lclavicle 1.11319e-014 -7.15625e-015
lhumerus -52.6162 -17.6249 96.9691
lradius 88.0624
lwrist 21.0705
lhand -9.0764 -12.8768
lfingers 7.12502
lthumb 16.8729 16.4102
rfemur 0 0 0
rtibia 0
rfoot 0 0
rtoes 0
lfemur 17.2384 -3.90564 -11.876
ltibia -19.2762
lfoot -2.8881 22.5672
ltoes -9.05516
531
root -0.825413 18.2133 5.47235 0.598717 -5.32368 -5.57532
lowerback 8.88035 -0.567929 2.06834
upperback 2.10669 -0.593999 -0.757963
thorax -2.82232 -0.310298 -1.88146
lowerneck 1.72838 -11.4693 -12.9359
upperneck 9.59184 -14.729 -5.10729
head 3.46841 -7.86331 0.0167894
rclavicle -2.06736e-014 -9.54166e-015
rhumerus -7.34059 28.6341 -68.0847
rradius 132.459
rwrist 2.45769
rhand -23.4275 -0.427038
rfingers 7.12502
rthumb 3.03022 -30.3853
lclavicle -2.06736e-014 -9.54166e-015
lhumerus -52.463 -17.6828 96.9965
lradius 88.1097
lwrist 20.957
lhand -9.00779 -12.8859
lfingers 7.12502
lthumb 16.9389 16.3955
rfemur 0 0 0
rtibia 0
rfoot 0 0
rtoes 0
lfemur 17.2591 -3.86068 -11.8578
ltibia -19.302
lfoot -2.8091 22.4968
ltoes -9.14632
532
root -0.820799 18.2143 5.46955 0.600923 -5.36926 -5.54308
lowerback 8.85338 -0.564295 1.95673
upperback 2.19413 -0.600046 -0.748224
thorax -2.71597 -0.310757 -1.80824
lowerneck 1.44137 -11.4469 -12.7376
upperneck 9.45503 -14.6565 -5.26059
head 3.43685 -7.821 -0.0681485
rclavicle -3.97569e-015 1.19271e-014
rhumerus -7.05802 28.9943 -67.9698
rradius 133.33
rwrist 2.61952
rhand -23.7728 -1.54608
rfingers 7.12502
rthumb 2.69674 -31.5088
lclavicle -3.97569e-015 1.19271e-014
lhumerus -52.1424 -17.7643 96.9619
lradius 88.0495
lwrist 20.9034
lhand -9.01603 -12.9304
lfingers 7.12502
lthumb 16.931 16.3516
rfemur 0 0 0
rtibia 0
rfoot 0 0
rtoes 0
lfemur 17.2627 -3.87289 -11.9138
ltibia -19.3181
lfoot -2.80036 22.535
ltoes -9.03524
533
root -0.818985 18.2144 5.46616 0.616059 -5.41916 -5.56867
lowerback 8.62207 -0.585941 1.84624
upperback 2.36617 -0.641901 -0.687056
thorax -2.40999 -0.326553 -1.68021
lowerneck 1.24964 -11.355 -12.5938
upperneck 9.27941 -14.5126 -5.36205
head 3.38135 -7.74097 -0.116933
rclavicle -1.25234e-014 -2.06736e-014
rhumerus -6.56292 29.8447 -67.7536
rradius 134.591
rwrist 2.62653
rhand -23.2255 -0.689786
rfingers 7.12502
rthumb 3.22532 -30.6451
lclavicle -1.25234e-014 -2.06736e-014
lhumerus -51.7828 -17.6504 96.8897
lradius 87.9605
lwrist 20.8875
lhand -9.09377 -12.9404
lfingers 7.12502
lthumb 16.8562 16.348
rfemur 0 0 0
rtibia 0
rfoot 0 0
rtoes 0
lfemur 17.237 -3.85111 -11.8876
ltibia -19.3042
lfoot -2.8165 22.5637
ltoes -8.99287
534
root -0.817763 18.2148 5.46249 0.646784 -5.46722 -5.58983
lowerback 8.544 -0.626764 1.86307
upperback 2.32024 -0.696351 -0.70605
thorax -2.41702 -0.354149 -1.70392
lowerneck 1.34422 -11.2118 -12.6078
upperneck 9.3913 -14.3218 -5.46251
head 3.38873 -7.65514 -0.135846
rclavicle -6.55989e-015 1.51076e-014
rhumerus -6.52167 30.9085 -67.7335
rradius 135.586
rwrist 3.33026
rhand -23.2348 -0.466425
rfingers 7.12502
rthumb 3.21637 -30.4219
lclavicle -6.55989e-015 1.51076e-014
lhumerus -51.8773 -17.4659 96.8223
lradius 87.9365
lwrist 20.8919
lhand -9.19286 -12.8454
lfingers 7.12502
lthumb 16.7608 16.4511
rfemur 0 0 0
rtibia 0
rfoot 0 0
rtoes 0
lfemur 17.1904 -3.81144 -11.862
ltibia -19.2842
lfoot -2.83106 22.5808
ltoes -8.89121
535
root -0.815927 18.2152 5.45924 0.66588 -5.4969 -5.5458
lowerback 8.6215 -0.632432 1.94972
upperback 2.14964 -0.698934 -0.866726
thorax -2.63947 -0.359633 -1.91745
lowerneck 1.45141 -11.1562 -12.6531
upperneck 9.79929 -14.2395 -5.4118
head 3.52029 -7.63559 -0.122514
rclavicle 2.98177e-015 7.95139e-016
rhumerus -6.83271 31.3806 -67.8661
rradius 135.865
rwrist 3.93143
rhand -23.5924 2.28612
rfingers 7.12502
rthumb 2.871 -27.6743
lclavicle 2.98177e-015 7.95139e-016
lhumerus -52.1743 -17.4909 96.6916
lradius 87.9268
lwrist 20.8097
lhand -9.36173 -12.8311
lfingers 7.12502
lthumb 16.5982 16.4791
rfemur 0 0 0
rtibia 0
rfoot 0 0
rtoes 0
lfemur 17.1596 -3.79948 -11.9157
ltibia -19.2785
lfoot -2.87314 22.6039
ltoes -8.80008
536
root -0.814087 18.2154 5.45561 0.652125 -5.53285 -5.52848
lowerback 8.55983 -0.624713 1.93081
upperback 2.14046 -0.694214 -0.957732
thorax -2.61544 -0.357126 -2.00193
lowerneck 1.37625 -11.1825 -12.617
upperneck 10.048 -14.2505 -5.36732
head 3.62485 -7.65267 -0.131797
rclavicle 5.1684e-015 -2.38542e-015
rhumerus -6.88262 31.3065 -67.7553
rradius 135.543
rwrist 3.9026
rhand -22.8207 0.706751
rfingers 7.12502
rthumb 3.61626 -29.2423
lclavicle 5.1684e-015 -2.38542e-015
lhumerus -52.1494 -17.5317 96.5597
lradius 87.8985
lwrist 20.732
lhand -9.34304 -12.7804
lfingers 7.12502
lthumb 16.6162 16.5283
rfemur 0 0 0
rtibia 0
rfoot 0 0
rtoes 0
lfemur 17.1601 -3.73421 -11.9354
ltibia -19.2635
lfoot -2.86559 22.5644
ltoes -8.88687
537
root -0.811071 18.2153 5.45146 0.626566 -5.62256 -5.53866
lowerback 8.43218 -0.600778 1.81526
upperback 2.16636 -0.674364 -0.94894
thorax -2.51559 -0.345441 -1.93077
lowerneck 1.47707 -11.2114 -12.6269
upperneck 10.0212 -14.3092 -5.33061
head 3.60273 -7.67839 -0.113723
rclavicle -8.34896e-015 -8.74653e-015
rhumerus -6.86456 30.8056 -67.4575
rradius 134.599
rwrist 3.50838
rhand -22.5273 0.345039
rfingers 7.12502
rthumb 3.89956 -29.599
lclavicle -8.34896e-015 -8.74653e-015
lhumerus -52.0486 -17.5473 96.5797
lradius 87.8936
lwrist 20.8509
lhand -8.92991 -12.5355
lfingers 7.12502
lthumb 17.0139 16.7394
rfemur 0 0 0
rtibia 0
rfoot 0 0
rtoes 0
lfemur 17.1847 -3.69803 -11.9392
ltibia -19.2369
lfoot -2.87239 22.586
ltoes -8.87058
